<svg width="470" height="226" viewBox="0 0 470 226" fill="none" xmlns="http://www.w3.org/2000/svg">
<path d="M137.146 161.948C163.494 145.815 171.775 111.377 155.641 85.0294C139.508 58.6816 105.07 50.4012 78.7225 66.5345C52.3747 82.6678 44.0942 117.105 60.2275 143.453C76.3608 169.801 110.799 178.082 137.146 161.948Z" fill="white"/>
<mask id="mask0_593_137" style="mask-type:luminance" maskUnits="userSpaceOnUse" x="51" y="58" width="113" height="113">
<path d="M137.147 161.948C163.494 145.815 171.775 111.377 155.642 85.0294C139.508 58.6816 105.071 50.4012 78.7228 66.5344C52.375 82.6677 44.0945 117.105 60.2278 143.453C76.3611 169.801 110.799 178.082 137.147 161.948Z" fill="white"/>
</mask>
<g mask="url(#mask0_593_137)">
<path d="M163.648 119.219L106.922 76.492L162.116 100.333C161.835 99.2006 161.499 98.0828 161.14 96.9636L92.6405 60.429C88.3984 61.6265 84.3149 63.3278 80.4773 65.4963L95.8786 77.2403L74.6843 69.23L95.9346 87.5033L63.8036 79.8759C63.3083 80.5137 62.8354 81.1529 62.3661 81.8057L129.854 116.913L81.2587 102.263L102.631 118.424L77.9697 112.2L150.632 150.364C155.573 144.547 159.263 137.774 161.472 130.468L144.508 116.933L162.634 125.897C163.103 123.693 163.442 121.463 163.648 119.219Z" fill="#92E3A9"/>
<path d="M142.101 158.521L83.4412 126.582L112.171 147.881L54.1026 129.458C58.0026 143.285 67.0761 155.079 79.4403 162.394C91.8046 169.709 106.51 171.982 120.506 168.743L98.9464 160.406L129.579 165.829C134.055 163.952 138.265 161.495 142.101 158.521Z" fill="#92E3A9"/>
<path d="M109.274 58.3584L142.232 76.4743L133.76 68.0269L143.336 70.9807C133.711 63.0864 121.719 58.6427 109.274 58.3584Z" fill="#92E3A9"/>
<path d="M71.3084 119.577L52.4795 107.09C51.7356 112.898 51.9006 118.786 52.9686 124.543L71.3084 119.577Z" fill="#92E3A9"/>
</g>
<path d="M137.146 161.948C163.494 145.815 171.775 111.377 155.641 85.0294C139.508 58.6816 105.07 50.4012 78.7225 66.5345C52.3747 82.6678 44.0942 117.105 60.2275 143.453C76.3608 169.801 110.799 178.082 137.146 161.948Z" stroke="#263238" stroke-width="1.04814" stroke-linecap="round" stroke-linejoin="round"/>
<path d="M172.76 50.2786C165.823 43.3526 148.511 48.5185 127.958 61.9978C129.833 62.7252 131.669 63.5503 133.459 64.4695C148.801 54.3557 160.9 50.2208 165.372 54.6738C173.306 62.5916 154.245 94.5874 122.783 126.121C91.3207 157.655 59.3866 176.826 51.4526 168.909C47.3652 164.828 50.4581 154.351 58.7109 140.837C57.7588 139.073 56.9015 137.26 56.1427 135.405C44.6141 154.233 40.5657 169.805 47.05 176.274C58.0404 187.238 95.078 167.907 129.787 133.11C164.496 98.312 183.755 61.2341 172.76 50.2786Z" fill="#92E3A9" stroke="#263238" stroke-width="1.04814" stroke-linecap="round" stroke-linejoin="round"/>
<mask id="path-9-outside-1_593_137" maskUnits="userSpaceOnUse" x="184" y="71" width="157" height="59" fill="black">
<rect fill="white" x="184" y="71" width="157" height="59"/>
<path d="M237.78 116.52H240.58V128H213.14V116.52H217.34L216.22 110.92H206.7L205.58 116.52H209.78V128H185.84V116.52H188.64L200.47 73.54H225.95L237.78 116.52ZM208.24 103.5H214.68L211.81 89.57H211.11L208.24 103.5ZM266.997 128.98C258.457 128.98 251.854 126.74 247.187 122.26C242.567 117.78 240.257 110.617 240.257 100.77C240.257 90.9233 242.567 83.76 247.187 79.28C251.854 74.8 258.457 72.56 266.997 72.56C275.537 72.56 282.117 74.8 286.737 79.28C291.404 83.76 293.737 90.9233 293.737 100.77C293.737 110.617 291.404 117.78 286.737 122.26C282.117 126.74 275.537 128.98 266.997 128.98ZM266.997 116.52C268.584 116.52 269.774 116.1 270.567 115.26C271.361 114.42 271.757 113.113 271.757 111.34V90.2C271.757 88.4267 271.361 87.12 270.567 86.28C269.774 85.44 268.584 85.02 266.997 85.02C265.411 85.02 264.221 85.44 263.427 86.28C262.634 87.12 262.237 88.4267 262.237 90.2V111.34C262.237 113.16 262.634 114.49 263.427 115.33C264.221 116.123 265.411 116.52 266.997 116.52ZM296.117 128V116.52H299.617V85.02H296.117V73.54H325.657V85.02H319.217V116.52H325.517V110.08H339.447V128H296.117Z"/>
</mask>
<path d="M237.78 116.52H240.58V128H213.14V116.52H217.34L216.22 110.92H206.7L205.58 116.52H209.78V128H185.84V116.52H188.64L200.47 73.54H225.95L237.78 116.52ZM208.24 103.5H214.68L211.81 89.57H211.11L208.24 103.5ZM266.997 128.98C258.457 128.98 251.854 126.74 247.187 122.26C242.567 117.78 240.257 110.617 240.257 100.77C240.257 90.9233 242.567 83.76 247.187 79.28C251.854 74.8 258.457 72.56 266.997 72.56C275.537 72.56 282.117 74.8 286.737 79.28C291.404 83.76 293.737 90.9233 293.737 100.77C293.737 110.617 291.404 117.78 286.737 122.26C282.117 126.74 275.537 128.98 266.997 128.98ZM266.997 116.52C268.584 116.52 269.774 116.1 270.567 115.26C271.361 114.42 271.757 113.113 271.757 111.34V90.2C271.757 88.4267 271.361 87.12 270.567 86.28C269.774 85.44 268.584 85.02 266.997 85.02C265.411 85.02 264.221 85.44 263.427 86.28C262.634 87.12 262.237 88.4267 262.237 90.2V111.34C262.237 113.16 262.634 114.49 263.427 115.33C264.221 116.123 265.411 116.52 266.997 116.52ZM296.117 128V116.52H299.617V85.02H296.117V73.54H325.657V85.02H319.217V116.52H325.517V110.08H339.447V128H296.117Z" fill="#92E3A9"/>
<path d="M237.78 116.52L236.816 116.785L237.018 117.52H237.78V116.52ZM240.58 116.52H241.58V115.52H240.58V116.52ZM240.58 128V129H241.58V128H240.58ZM213.14 128H212.14V129H213.14V128ZM213.14 116.52V115.52H212.14V116.52H213.14ZM217.34 116.52V117.52H218.56L218.321 116.324L217.34 116.52ZM216.22 110.92L217.201 110.724L217.04 109.92H216.22V110.92ZM206.7 110.92V109.92H205.88L205.719 110.724L206.7 110.92ZM205.58 116.52L204.599 116.324L204.36 117.52H205.58V116.52ZM209.78 116.52H210.78V115.52H209.78V116.52ZM209.78 128V129H210.78V128H209.78ZM185.84 128H184.84V129H185.84V128ZM185.84 116.52V115.52H184.84V116.52H185.84ZM188.64 116.52V117.52H189.402L189.604 116.785L188.64 116.52ZM200.47 73.54V72.54H199.708L199.506 73.2746L200.47 73.54ZM225.95 73.54L226.914 73.2746L226.712 72.54H225.95V73.54ZM208.24 103.5L207.261 103.298L207.013 104.5H208.24V103.5ZM214.68 103.5V104.5H215.907L215.659 103.298L214.68 103.5ZM211.81 89.57L212.789 89.3682L212.625 88.57H211.81V89.57ZM211.11 89.57V88.57H210.295L210.131 89.3682L211.11 89.57ZM237.78 117.52H240.58V115.52H237.78V117.52ZM239.58 116.52V128H241.58V116.52H239.58ZM240.58 127H213.14V129H240.58V127ZM214.14 128V116.52H212.14V128H214.14ZM213.14 117.52H217.34V115.52H213.14V117.52ZM218.321 116.324L217.201 110.724L215.239 111.116L216.359 116.716L218.321 116.324ZM216.22 109.92H206.7V111.92H216.22V109.92ZM205.719 110.724L204.599 116.324L206.561 116.716L207.681 111.116L205.719 110.724ZM205.58 117.52H209.78V115.52H205.58V117.52ZM208.78 116.52V128H210.78V116.52H208.78ZM209.78 127H185.84V129H209.78V127ZM186.84 128V116.52H184.84V128H186.84ZM185.84 117.52H188.64V115.52H185.84V117.52ZM189.604 116.785L201.434 73.8054L199.506 73.2746L187.676 116.255L189.604 116.785ZM200.47 74.54H225.95V72.54H200.47V74.54ZM224.986 73.8054L236.816 116.785L238.744 116.255L226.914 73.2746L224.986 73.8054ZM208.24 104.5H214.68V102.5H208.24V104.5ZM215.659 103.298L212.789 89.3682L210.831 89.7718L213.701 103.702L215.659 103.298ZM211.81 88.57H211.11V90.57H211.81V88.57ZM210.131 89.3682L207.261 103.298L209.219 103.702L212.089 89.7718L210.131 89.3682ZM247.187 122.26L246.491 122.978L246.495 122.981L247.187 122.26ZM247.187 79.28L246.495 78.5586L246.491 78.5621L247.187 79.28ZM286.737 79.28L286.041 79.9979L286.045 80.0014L286.737 79.28ZM286.737 122.26L286.045 121.539L286.041 121.542L286.737 122.26ZM270.567 115.26L271.294 115.947L271.294 115.947L270.567 115.26ZM270.567 86.28L271.294 85.5934L271.294 85.5934L270.567 86.28ZM263.427 86.28L264.154 86.9666L264.154 86.9666L263.427 86.28ZM263.427 115.33L262.7 116.017L262.71 116.027L262.72 116.037L263.427 115.33ZM266.997 127.98C258.63 127.98 252.307 125.788 247.88 121.539L246.495 122.981C251.401 127.692 258.284 129.98 266.997 129.98V127.98ZM247.883 121.542C243.54 117.33 241.257 110.487 241.257 100.77H239.257C239.257 110.746 241.595 118.23 246.491 122.978L247.883 121.542ZM241.257 100.77C241.257 91.0526 243.54 84.2098 247.883 79.9979L246.491 78.5621C241.595 83.3102 239.257 90.794 239.257 100.77H241.257ZM247.88 80.0014C252.307 75.7515 258.63 73.56 266.997 73.56V71.56C258.284 71.56 251.401 73.8485 246.495 78.5586L247.88 80.0014ZM266.997 73.56C275.365 73.56 281.662 75.7518 286.041 79.9979L287.433 78.5621C282.572 73.8482 275.71 71.56 266.997 71.56V73.56ZM286.045 80.0014C290.433 84.2137 292.737 91.0551 292.737 100.77H294.737C294.737 90.7916 292.375 83.3063 287.43 78.5586L286.045 80.0014ZM292.737 100.77C292.737 110.485 290.433 117.326 286.045 121.539L287.43 122.981C292.375 118.234 294.737 110.748 294.737 100.77H292.737ZM286.041 121.542C281.662 125.788 275.365 127.98 266.997 127.98V129.98C275.71 129.98 282.572 127.692 287.433 122.978L286.041 121.542ZM266.997 117.52C268.753 117.52 270.25 117.052 271.294 115.947L269.84 114.573C269.298 115.148 268.415 115.52 266.997 115.52V117.52ZM271.294 115.947C272.337 114.843 272.757 113.236 272.757 111.34H270.757C270.757 112.991 270.385 113.997 269.84 114.573L271.294 115.947ZM272.757 111.34V90.2H270.757V111.34H272.757ZM272.757 90.2C272.757 88.3039 272.337 86.697 271.294 85.5934L269.84 86.9666C270.385 87.543 270.757 88.5494 270.757 90.2H272.757ZM271.294 85.5934C270.25 84.4876 268.753 84.02 266.997 84.02V86.02C268.415 86.02 269.298 86.3924 269.84 86.9666L271.294 85.5934ZM266.997 84.02C265.241 84.02 263.745 84.4876 262.7 85.5934L264.154 86.9666C264.697 86.3924 265.58 86.02 266.997 86.02V84.02ZM262.7 85.5934C261.658 86.697 261.237 88.3039 261.237 90.2H263.237C263.237 88.5494 263.61 87.543 264.154 86.9666L262.7 85.5934ZM261.237 90.2V111.34H263.237V90.2H261.237ZM261.237 111.34C261.237 113.274 261.654 114.909 262.7 116.017L264.154 114.643C263.614 114.071 263.237 113.046 263.237 111.34H261.237ZM262.72 116.037C263.767 117.084 265.257 117.52 266.997 117.52V115.52C265.565 115.52 264.674 115.163 264.134 114.623L262.72 116.037ZM296.117 128H295.117V129H296.117V128ZM296.117 116.52V115.52H295.117V116.52H296.117ZM299.617 116.52V117.52H300.617V116.52H299.617ZM299.617 85.02H300.617V84.02H299.617V85.02ZM296.117 85.02H295.117V86.02H296.117V85.02ZM296.117 73.54V72.54H295.117V73.54H296.117ZM325.657 73.54H326.657V72.54H325.657V73.54ZM325.657 85.02V86.02H326.657V85.02H325.657ZM319.217 85.02V84.02H318.217V85.02H319.217ZM319.217 116.52H318.217V117.52H319.217V116.52ZM325.517 116.52V117.52H326.517V116.52H325.517ZM325.517 110.08V109.08H324.517V110.08H325.517ZM339.447 110.08H340.447V109.08H339.447V110.08ZM339.447 128V129H340.447V128H339.447ZM297.117 128V116.52H295.117V128H297.117ZM296.117 117.52H299.617V115.52H296.117V117.52ZM300.617 116.52V85.02H298.617V116.52H300.617ZM299.617 84.02H296.117V86.02H299.617V84.02ZM297.117 85.02V73.54H295.117V85.02H297.117ZM296.117 74.54H325.657V72.54H296.117V74.54ZM324.657 73.54V85.02H326.657V73.54H324.657ZM325.657 84.02H319.217V86.02H325.657V84.02ZM318.217 85.02V116.52H320.217V85.02H318.217ZM319.217 117.52H325.517V115.52H319.217V117.52ZM326.517 116.52V110.08H324.517V116.52H326.517ZM325.517 111.08H339.447V109.08H325.517V111.08ZM338.447 110.08V128H340.447V110.08H338.447ZM339.447 127H296.117V129H339.447V127Z" fill="white" mask="url(#path-9-outside-1_593_137)"/>
<mask id="path-11-outside-2_593_137" maskUnits="userSpaceOnUse" x="217" y="123" width="253" height="50" fill="black">
<rect fill="white" x="217" y="123" width="253" height="50"/>
<path d="M233.18 161.644C230.236 161.644 227.445 161.399 224.808 160.908C222.201 160.387 220.193 159.804 218.782 159.16V150.052H228.902C228.902 151.003 229.117 151.693 229.546 152.122C229.975 152.551 230.757 152.766 231.892 152.766C232.843 152.766 233.517 152.628 233.916 152.352C234.345 152.045 234.56 151.601 234.56 151.018C234.56 150.527 234.361 150.113 233.962 149.776C233.563 149.408 232.873 149.04 231.892 148.672L227.936 147.292C224.532 146.004 222.079 144.486 220.576 142.738C219.104 140.99 218.368 138.629 218.368 135.654C218.368 132.035 219.549 129.291 221.91 127.42C224.302 125.519 228.273 124.568 233.824 124.568C236.492 124.568 238.991 124.844 241.322 125.396C243.683 125.917 245.585 126.623 247.026 127.512V135.746H237.826C237.826 134.213 236.875 133.446 234.974 133.446C234.054 133.446 233.395 133.569 232.996 133.814C232.628 134.029 232.444 134.427 232.444 135.01C232.444 135.531 232.659 135.945 233.088 136.252C233.548 136.559 234.284 136.881 235.296 137.218L239.298 138.598C242.549 139.702 244.91 141.143 246.382 142.922C247.885 144.67 248.636 146.97 248.636 149.822C248.636 153.717 247.317 156.661 244.68 158.654C242.073 160.647 238.24 161.644 233.18 161.644ZM249.64 163.668H251.664V142.968H249.64V135.424H262.244V138.552C263.011 137.571 263.992 136.697 265.188 135.93C266.415 135.163 267.81 134.78 269.374 134.78C272.502 134.78 274.848 135.945 276.412 138.276C278.007 140.607 278.804 143.919 278.804 148.212C278.804 152.505 278.007 155.817 276.412 158.148C274.848 160.479 272.502 161.644 269.374 161.644C267.81 161.644 266.415 161.261 265.188 160.494C263.992 159.727 263.011 158.853 262.244 157.872V163.668H265.418V171.212H249.64V163.668ZM264.912 153.456C265.801 153.456 266.461 153.226 266.89 152.766C267.35 152.275 267.58 151.524 267.58 150.512V145.912C267.58 144.9 267.35 144.164 266.89 143.704C266.461 143.213 265.801 142.968 264.912 142.968C264.023 142.968 263.348 143.213 262.888 143.704C262.459 144.164 262.244 144.9 262.244 145.912V150.512C262.244 151.524 262.459 152.275 262.888 152.766C263.348 153.226 264.023 153.456 264.912 153.456ZM306.919 153.456V161H294.775V157.872C294.101 158.853 293.15 159.727 291.923 160.494C290.727 161.261 289.255 161.644 287.507 161.644C285.207 161.644 283.398 161.031 282.079 159.804C280.761 158.577 280.101 156.845 280.101 154.606C280.101 148.81 285.023 145.835 294.867 145.682C294.775 144.639 294.377 143.934 293.671 143.566C292.966 143.167 291.77 142.968 290.083 142.968C288.703 142.968 287.216 143.121 285.621 143.428C284.057 143.704 282.616 144.087 281.297 144.578V136.114C282.923 135.715 284.686 135.393 286.587 135.148C288.489 134.903 290.344 134.78 292.153 134.78C296.723 134.78 299.989 135.608 301.951 137.264C303.914 138.92 304.895 141.481 304.895 144.946V153.456H306.919ZM294.775 150.236C293.395 150.236 292.322 150.42 291.555 150.788C290.819 151.156 290.451 151.769 290.451 152.628C290.451 153.149 290.605 153.579 290.911 153.916C291.249 154.223 291.709 154.376 292.291 154.376C293.089 154.376 293.702 154.039 294.131 153.364C294.561 152.689 294.775 151.739 294.775 150.512V150.236ZM322.156 161.644C317.771 161.644 314.352 160.509 311.898 158.24C309.445 155.94 308.218 152.597 308.218 148.212C308.218 143.827 309.445 140.499 311.898 138.23C314.352 135.93 317.756 134.78 322.11 134.78C324.226 134.78 326.25 135.071 328.182 135.654C330.114 136.237 331.617 136.896 332.69 137.632V146.74H324.778V145.912C324.778 144.9 324.564 144.164 324.134 143.704C323.705 143.213 323.03 142.968 322.11 142.968C320.332 142.968 319.442 143.949 319.442 145.912V149.868C319.442 152.26 320.807 153.456 323.536 153.456C326.082 153.456 329.041 153.18 332.414 152.628V159.85C331.372 160.31 329.9 160.724 327.998 161.092C326.128 161.46 324.18 161.644 322.156 161.644ZM347.94 161.644C343.586 161.644 340.182 160.509 337.728 158.24C335.275 155.94 334.048 152.597 334.048 148.212C334.048 143.827 335.275 140.499 337.728 138.23C340.182 135.93 343.586 134.78 347.94 134.78C352.264 134.78 355.377 135.915 357.278 138.184C359.21 140.423 360.176 143.213 360.176 146.556V149.868H345.272V150.144C345.272 151.279 345.61 152.122 346.284 152.674C346.959 153.195 348.078 153.456 349.642 153.456C351.513 153.456 353.292 153.318 354.978 153.042C356.665 152.766 358.137 152.413 359.394 151.984V159.344C358.321 159.927 356.742 160.463 354.656 160.954C352.602 161.414 350.363 161.644 347.94 161.644ZM350.608 144.808V144.256C350.608 143.213 350.378 142.462 349.918 142.002C349.489 141.542 348.83 141.312 347.94 141.312C347.051 141.312 346.376 141.557 345.916 142.048C345.487 142.508 345.272 143.244 345.272 144.256V144.808H350.608ZM389.688 161.644C386.744 161.644 383.953 161.399 381.316 160.908C378.709 160.387 376.7 159.804 375.29 159.16V150.052H385.41C385.41 151.003 385.624 151.693 386.054 152.122C386.483 152.551 387.265 152.766 388.4 152.766C389.35 152.766 390.025 152.628 390.424 152.352C390.853 152.045 391.068 151.601 391.068 151.018C391.068 150.527 390.868 150.113 390.47 149.776C390.071 149.408 389.381 149.04 388.4 148.672L384.444 147.292C381.04 146.004 378.586 144.486 377.084 142.738C375.612 140.99 374.876 138.629 374.876 135.654C374.876 132.035 376.056 129.291 378.418 127.42C380.81 125.519 384.781 124.568 390.332 124.568C393 124.568 395.499 124.844 397.83 125.396C400.191 125.917 402.092 126.623 403.534 127.512V135.746H394.334C394.334 134.213 393.383 133.446 391.482 133.446C390.562 133.446 389.902 133.569 389.504 133.814C389.136 134.029 388.952 134.427 388.952 135.01C388.952 135.531 389.166 135.945 389.596 136.252C390.056 136.559 390.792 136.881 391.804 137.218L395.806 138.598C399.056 139.702 401.418 141.143 402.89 142.922C404.392 144.67 405.144 146.97 405.144 149.822C405.144 153.717 403.825 156.661 401.188 158.654C398.581 160.647 394.748 161.644 389.688 161.644ZM408.54 132.894V125.212H417.924V132.894H408.54ZM406.332 161V153.456H408.356V142.968H406.332V135.424H418.936V153.456H420.96V161H406.332ZM433.596 161.644C430.346 161.644 427.892 160.862 426.236 159.298C424.611 157.703 423.798 155.035 423.798 151.294V142.968H421.774V135.424C422.94 135.424 423.814 135.133 424.396 134.55C424.979 133.937 425.27 133.109 425.27 132.066V129.996H435.022V135.424H441.232V142.968H435.022V150.512C435.022 151.524 435.237 152.275 435.666 152.766C436.126 153.226 436.801 153.456 437.69 153.456C438.856 153.456 440.128 153.318 441.508 153.042V160.264C440.65 160.601 439.484 160.908 438.012 161.184C436.571 161.491 435.099 161.644 433.596 161.644ZM456.696 161.644C452.341 161.644 448.937 160.509 446.484 158.24C444.031 155.94 442.804 152.597 442.804 148.212C442.804 143.827 444.031 140.499 446.484 138.23C448.937 135.93 452.341 134.78 456.696 134.78C461.02 134.78 464.133 135.915 466.034 138.184C467.966 140.423 468.932 143.213 468.932 146.556V149.868H454.028V150.144C454.028 151.279 454.365 152.122 455.04 152.674C455.715 153.195 456.834 153.456 458.398 153.456C460.269 153.456 462.047 153.318 463.734 153.042C465.421 152.766 466.893 152.413 468.15 151.984V159.344C467.077 159.927 465.497 160.463 463.412 160.954C461.357 161.414 459.119 161.644 456.696 161.644ZM459.364 144.808V144.256C459.364 143.213 459.134 142.462 458.674 142.002C458.245 141.542 457.585 141.312 456.696 141.312C455.807 141.312 455.132 141.557 454.672 142.048C454.243 142.508 454.028 143.244 454.028 144.256V144.808H459.364Z"/>
</mask>
<path d="M233.18 161.644C230.236 161.644 227.445 161.399 224.808 160.908C222.201 160.387 220.193 159.804 218.782 159.16V150.052H228.902C228.902 151.003 229.117 151.693 229.546 152.122C229.975 152.551 230.757 152.766 231.892 152.766C232.843 152.766 233.517 152.628 233.916 152.352C234.345 152.045 234.56 151.601 234.56 151.018C234.56 150.527 234.361 150.113 233.962 149.776C233.563 149.408 232.873 149.04 231.892 148.672L227.936 147.292C224.532 146.004 222.079 144.486 220.576 142.738C219.104 140.99 218.368 138.629 218.368 135.654C218.368 132.035 219.549 129.291 221.91 127.42C224.302 125.519 228.273 124.568 233.824 124.568C236.492 124.568 238.991 124.844 241.322 125.396C243.683 125.917 245.585 126.623 247.026 127.512V135.746H237.826C237.826 134.213 236.875 133.446 234.974 133.446C234.054 133.446 233.395 133.569 232.996 133.814C232.628 134.029 232.444 134.427 232.444 135.01C232.444 135.531 232.659 135.945 233.088 136.252C233.548 136.559 234.284 136.881 235.296 137.218L239.298 138.598C242.549 139.702 244.91 141.143 246.382 142.922C247.885 144.67 248.636 146.97 248.636 149.822C248.636 153.717 247.317 156.661 244.68 158.654C242.073 160.647 238.24 161.644 233.18 161.644ZM249.64 163.668H251.664V142.968H249.64V135.424H262.244V138.552C263.011 137.571 263.992 136.697 265.188 135.93C266.415 135.163 267.81 134.78 269.374 134.78C272.502 134.78 274.848 135.945 276.412 138.276C278.007 140.607 278.804 143.919 278.804 148.212C278.804 152.505 278.007 155.817 276.412 158.148C274.848 160.479 272.502 161.644 269.374 161.644C267.81 161.644 266.415 161.261 265.188 160.494C263.992 159.727 263.011 158.853 262.244 157.872V163.668H265.418V171.212H249.64V163.668ZM264.912 153.456C265.801 153.456 266.461 153.226 266.89 152.766C267.35 152.275 267.58 151.524 267.58 150.512V145.912C267.58 144.9 267.35 144.164 266.89 143.704C266.461 143.213 265.801 142.968 264.912 142.968C264.023 142.968 263.348 143.213 262.888 143.704C262.459 144.164 262.244 144.9 262.244 145.912V150.512C262.244 151.524 262.459 152.275 262.888 152.766C263.348 153.226 264.023 153.456 264.912 153.456ZM306.919 153.456V161H294.775V157.872C294.101 158.853 293.15 159.727 291.923 160.494C290.727 161.261 289.255 161.644 287.507 161.644C285.207 161.644 283.398 161.031 282.079 159.804C280.761 158.577 280.101 156.845 280.101 154.606C280.101 148.81 285.023 145.835 294.867 145.682C294.775 144.639 294.377 143.934 293.671 143.566C292.966 143.167 291.77 142.968 290.083 142.968C288.703 142.968 287.216 143.121 285.621 143.428C284.057 143.704 282.616 144.087 281.297 144.578V136.114C282.923 135.715 284.686 135.393 286.587 135.148C288.489 134.903 290.344 134.78 292.153 134.78C296.723 134.78 299.989 135.608 301.951 137.264C303.914 138.92 304.895 141.481 304.895 144.946V153.456H306.919ZM294.775 150.236C293.395 150.236 292.322 150.42 291.555 150.788C290.819 151.156 290.451 151.769 290.451 152.628C290.451 153.149 290.605 153.579 290.911 153.916C291.249 154.223 291.709 154.376 292.291 154.376C293.089 154.376 293.702 154.039 294.131 153.364C294.561 152.689 294.775 151.739 294.775 150.512V150.236ZM322.156 161.644C317.771 161.644 314.352 160.509 311.898 158.24C309.445 155.94 308.218 152.597 308.218 148.212C308.218 143.827 309.445 140.499 311.898 138.23C314.352 135.93 317.756 134.78 322.11 134.78C324.226 134.78 326.25 135.071 328.182 135.654C330.114 136.237 331.617 136.896 332.69 137.632V146.74H324.778V145.912C324.778 144.9 324.564 144.164 324.134 143.704C323.705 143.213 323.03 142.968 322.11 142.968C320.332 142.968 319.442 143.949 319.442 145.912V149.868C319.442 152.26 320.807 153.456 323.536 153.456C326.082 153.456 329.041 153.18 332.414 152.628V159.85C331.372 160.31 329.9 160.724 327.998 161.092C326.128 161.46 324.18 161.644 322.156 161.644ZM347.94 161.644C343.586 161.644 340.182 160.509 337.728 158.24C335.275 155.94 334.048 152.597 334.048 148.212C334.048 143.827 335.275 140.499 337.728 138.23C340.182 135.93 343.586 134.78 347.94 134.78C352.264 134.78 355.377 135.915 357.278 138.184C359.21 140.423 360.176 143.213 360.176 146.556V149.868H345.272V150.144C345.272 151.279 345.61 152.122 346.284 152.674C346.959 153.195 348.078 153.456 349.642 153.456C351.513 153.456 353.292 153.318 354.978 153.042C356.665 152.766 358.137 152.413 359.394 151.984V159.344C358.321 159.927 356.742 160.463 354.656 160.954C352.602 161.414 350.363 161.644 347.94 161.644ZM350.608 144.808V144.256C350.608 143.213 350.378 142.462 349.918 142.002C349.489 141.542 348.83 141.312 347.94 141.312C347.051 141.312 346.376 141.557 345.916 142.048C345.487 142.508 345.272 143.244 345.272 144.256V144.808H350.608ZM389.688 161.644C386.744 161.644 383.953 161.399 381.316 160.908C378.709 160.387 376.7 159.804 375.29 159.16V150.052H385.41C385.41 151.003 385.624 151.693 386.054 152.122C386.483 152.551 387.265 152.766 388.4 152.766C389.35 152.766 390.025 152.628 390.424 152.352C390.853 152.045 391.068 151.601 391.068 151.018C391.068 150.527 390.868 150.113 390.47 149.776C390.071 149.408 389.381 149.04 388.4 148.672L384.444 147.292C381.04 146.004 378.586 144.486 377.084 142.738C375.612 140.99 374.876 138.629 374.876 135.654C374.876 132.035 376.056 129.291 378.418 127.42C380.81 125.519 384.781 124.568 390.332 124.568C393 124.568 395.499 124.844 397.83 125.396C400.191 125.917 402.092 126.623 403.534 127.512V135.746H394.334C394.334 134.213 393.383 133.446 391.482 133.446C390.562 133.446 389.902 133.569 389.504 133.814C389.136 134.029 388.952 134.427 388.952 135.01C388.952 135.531 389.166 135.945 389.596 136.252C390.056 136.559 390.792 136.881 391.804 137.218L395.806 138.598C399.056 139.702 401.418 141.143 402.89 142.922C404.392 144.67 405.144 146.97 405.144 149.822C405.144 153.717 403.825 156.661 401.188 158.654C398.581 160.647 394.748 161.644 389.688 161.644ZM408.54 132.894V125.212H417.924V132.894H408.54ZM406.332 161V153.456H408.356V142.968H406.332V135.424H418.936V153.456H420.96V161H406.332ZM433.596 161.644C430.346 161.644 427.892 160.862 426.236 159.298C424.611 157.703 423.798 155.035 423.798 151.294V142.968H421.774V135.424C422.94 135.424 423.814 135.133 424.396 134.55C424.979 133.937 425.27 133.109 425.27 132.066V129.996H435.022V135.424H441.232V142.968H435.022V150.512C435.022 151.524 435.237 152.275 435.666 152.766C436.126 153.226 436.801 153.456 437.69 153.456C438.856 153.456 440.128 153.318 441.508 153.042V160.264C440.65 160.601 439.484 160.908 438.012 161.184C436.571 161.491 435.099 161.644 433.596 161.644ZM456.696 161.644C452.341 161.644 448.937 160.509 446.484 158.24C444.031 155.94 442.804 152.597 442.804 148.212C442.804 143.827 444.031 140.499 446.484 138.23C448.937 135.93 452.341 134.78 456.696 134.78C461.02 134.78 464.133 135.915 466.034 138.184C467.966 140.423 468.932 143.213 468.932 146.556V149.868H454.028V150.144C454.028 151.279 454.365 152.122 455.04 152.674C455.715 153.195 456.834 153.456 458.398 153.456C460.269 153.456 462.047 153.318 463.734 153.042C465.421 152.766 466.893 152.413 468.15 151.984V159.344C467.077 159.927 465.497 160.463 463.412 160.954C461.357 161.414 459.119 161.644 456.696 161.644ZM459.364 144.808V144.256C459.364 143.213 459.134 142.462 458.674 142.002C458.245 141.542 457.585 141.312 456.696 141.312C455.807 141.312 455.132 141.557 454.672 142.048C454.243 142.508 454.028 143.244 454.028 144.256V144.808H459.364Z" fill="white"/>
<path d="M224.808 160.908L224.612 161.889L224.625 161.891L224.808 160.908ZM218.782 159.16H217.782V159.803L218.367 160.07L218.782 159.16ZM218.782 150.052V149.052H217.782V150.052H218.782ZM228.902 150.052H229.902V149.052H228.902V150.052ZM229.546 152.122L228.839 152.829L228.839 152.829L229.546 152.122ZM233.916 152.352L234.485 153.174L234.491 153.17L234.497 153.166L233.916 152.352ZM233.962 149.776L233.284 150.511L233.3 150.525L233.316 150.539L233.962 149.776ZM231.892 148.672L232.243 147.736L232.232 147.732L232.221 147.728L231.892 148.672ZM227.936 147.292L227.582 148.227L227.594 148.232L227.607 148.236L227.936 147.292ZM220.576 142.738L219.811 143.382L219.818 143.39L220.576 142.738ZM221.91 127.42L222.531 128.204L222.532 128.203L221.91 127.42ZM241.322 125.396L241.092 126.369L241.099 126.371L241.106 126.372L241.322 125.396ZM247.026 127.512H248.026V126.954L247.551 126.661L247.026 127.512ZM247.026 135.746V136.746H248.026V135.746H247.026ZM237.826 135.746H236.826V136.746H237.826V135.746ZM232.996 133.814L233.5 134.678L233.51 134.672L233.52 134.666L232.996 133.814ZM233.088 136.252L232.507 137.066L232.52 137.075L232.533 137.084L233.088 136.252ZM235.296 137.218L235.622 136.273L235.612 136.269L235.296 137.218ZM239.298 138.598L238.972 139.543L238.976 139.545L239.298 138.598ZM246.382 142.922L245.612 143.56L245.618 143.567L245.624 143.574L246.382 142.922ZM244.68 158.654L244.077 157.856L244.073 157.86L244.68 158.654ZM233.18 160.644C230.291 160.644 227.562 160.403 224.991 159.925L224.625 161.891C227.328 162.394 230.181 162.644 233.18 162.644V160.644ZM225.004 159.927C222.428 159.412 220.506 158.848 219.197 158.25L218.367 160.07C219.88 160.76 221.975 161.361 224.612 161.889L225.004 159.927ZM219.782 159.16V150.052H217.782V159.16H219.782ZM218.782 151.052H228.902V149.052H218.782V151.052ZM227.902 150.052C227.902 151.122 228.139 152.13 228.839 152.829L230.253 151.415C230.094 151.256 229.902 150.883 229.902 150.052H227.902ZM228.839 152.829C229.564 153.554 230.699 153.766 231.892 153.766V151.766C230.816 151.766 230.387 151.549 230.253 151.415L228.839 152.829ZM231.892 153.766C232.882 153.766 233.822 153.633 234.485 153.174L233.347 151.53C233.212 151.623 232.803 151.766 231.892 151.766V153.766ZM234.497 153.166C235.22 152.65 235.56 151.884 235.56 151.018H233.56C233.56 151.317 233.471 151.441 233.335 151.538L234.497 153.166ZM235.56 151.018C235.56 150.212 235.215 149.526 234.608 149.013L233.316 150.539C233.507 150.701 233.56 150.842 233.56 151.018H235.56ZM234.64 149.041C234.094 148.537 233.254 148.115 232.243 147.736L231.541 149.608C232.493 149.965 233.032 150.279 233.284 150.511L234.64 149.041ZM232.221 147.728L228.265 146.348L227.607 148.236L231.563 149.616L232.221 147.728ZM228.29 146.357C224.961 145.097 222.683 143.654 221.334 142.086L219.818 143.39C221.475 145.318 224.103 146.911 227.582 148.227L228.29 146.357ZM221.341 142.094C220.062 140.575 219.368 138.465 219.368 135.654H217.368C217.368 138.792 218.146 141.405 219.811 143.382L221.341 142.094ZM219.368 135.654C219.368 132.272 220.458 129.846 222.531 128.204L221.289 126.636C218.639 128.735 217.368 131.798 217.368 135.654H219.368ZM222.532 128.203C224.652 126.518 228.337 125.568 233.824 125.568V123.568C228.21 123.568 223.952 124.52 221.288 126.637L222.532 128.203ZM233.824 125.568C236.423 125.568 238.844 125.837 241.092 126.369L241.552 124.423C239.138 123.851 236.561 123.568 233.824 123.568V125.568ZM241.106 126.372C243.401 126.879 245.186 127.552 246.501 128.363L247.551 126.661C245.983 125.693 243.966 124.956 241.538 124.42L241.106 126.372ZM246.026 127.512V135.746H248.026V127.512H246.026ZM247.026 134.746H237.826V136.746H247.026V134.746ZM238.826 135.746C238.826 134.761 238.51 133.863 237.741 133.243C237.012 132.655 236.033 132.446 234.974 132.446V134.446C235.816 134.446 236.263 134.62 236.485 134.799C236.666 134.946 236.826 135.197 236.826 135.746H238.826ZM234.974 132.446C234.017 132.446 233.119 132.564 232.472 132.962L233.52 134.666C233.67 134.573 234.091 134.446 234.974 134.446V132.446ZM232.492 132.95C231.708 133.408 231.444 134.219 231.444 135.01H233.444C233.444 134.818 233.475 134.725 233.49 134.693C233.497 134.679 233.5 134.676 233.498 134.678C233.495 134.681 233.494 134.681 233.5 134.678L232.492 132.95ZM231.444 135.01C231.444 135.859 231.818 136.574 232.507 137.066L233.669 135.438C233.499 135.317 233.444 135.204 233.444 135.01H231.444ZM232.533 137.084C233.107 137.467 233.946 137.822 234.98 138.167L235.612 136.269C234.622 135.939 233.989 135.651 233.643 135.42L232.533 137.084ZM234.97 138.163L238.972 139.543L239.624 137.653L235.622 136.273L234.97 138.163ZM238.976 139.545C242.131 140.616 244.302 141.977 245.612 143.56L247.152 142.284C245.518 140.31 242.966 138.788 239.62 137.651L238.976 139.545ZM245.624 143.574C246.936 145.1 247.636 147.15 247.636 149.822H249.636C249.636 146.79 248.833 144.24 247.14 142.27L245.624 143.574ZM247.636 149.822C247.636 153.466 246.418 156.087 244.077 157.856L245.283 159.452C248.217 157.234 249.636 153.967 249.636 149.822H247.636ZM244.073 157.86C241.712 159.665 238.133 160.644 233.18 160.644V162.644C238.347 162.644 242.434 161.63 245.287 159.448L244.073 157.86ZM249.64 163.668V162.668H248.64V163.668H249.64ZM251.664 163.668V164.668H252.664V163.668H251.664ZM251.664 142.968H252.664V141.968H251.664V142.968ZM249.64 142.968H248.64V143.968H249.64V142.968ZM249.64 135.424V134.424H248.64V135.424H249.64ZM262.244 135.424H263.244V134.424H262.244V135.424ZM262.244 138.552H261.244V141.456L263.032 139.168L262.244 138.552ZM265.188 135.93L264.658 135.082L264.648 135.088L265.188 135.93ZM276.412 138.276L275.582 138.833L275.587 138.841L276.412 138.276ZM276.412 158.148L275.587 157.583L275.582 157.591L276.412 158.148ZM265.188 160.494L264.648 161.336L264.658 161.342L265.188 160.494ZM262.244 157.872L263.032 157.256L261.244 154.968V157.872H262.244ZM262.244 163.668H261.244V164.668H262.244V163.668ZM265.418 163.668H266.418V162.668H265.418V163.668ZM265.418 171.212V172.212H266.418V171.212H265.418ZM249.64 171.212H248.64V172.212H249.64V171.212ZM266.89 152.766L266.161 152.082L266.159 152.084L266.89 152.766ZM266.89 143.704L266.138 144.363L266.159 144.388L266.183 144.411L266.89 143.704ZM262.888 143.704L262.159 143.02L262.157 143.022L262.888 143.704ZM262.888 152.766L262.136 153.425L262.157 153.45L262.181 153.473L262.888 152.766ZM249.64 164.668H251.664V162.668H249.64V164.668ZM252.664 163.668V142.968H250.664V163.668H252.664ZM251.664 141.968H249.64V143.968H251.664V141.968ZM250.64 142.968V135.424H248.64V142.968H250.64ZM249.64 136.424H262.244V134.424H249.64V136.424ZM261.244 135.424V138.552H263.244V135.424H261.244ZM263.032 139.168C263.72 138.287 264.614 137.486 265.728 136.772L264.648 135.088C263.371 135.907 262.301 136.855 261.456 137.936L263.032 139.168ZM265.718 136.778C266.773 136.119 267.982 135.78 269.374 135.78V133.78C267.638 133.78 266.057 134.208 264.658 135.082L265.718 136.778ZM269.374 135.78C272.214 135.78 274.227 136.815 275.582 138.833L277.242 137.719C275.469 135.076 272.791 133.78 269.374 133.78V135.78ZM275.587 138.841C277.023 140.939 277.804 144.022 277.804 148.212H279.804C279.804 143.815 278.991 140.274 277.237 137.711L275.587 138.841ZM277.804 148.212C277.804 152.402 277.023 155.485 275.587 157.583L277.237 158.713C278.991 156.15 279.804 152.609 279.804 148.212H277.804ZM275.582 157.591C274.227 159.609 272.214 160.644 269.374 160.644V162.644C272.791 162.644 275.469 161.348 277.242 158.705L275.582 157.591ZM269.374 160.644C267.982 160.644 266.773 160.305 265.718 159.646L264.658 161.342C266.057 162.216 267.638 162.644 269.374 162.644V160.644ZM265.728 159.652C264.614 158.938 263.72 158.137 263.032 157.256L261.456 158.488C262.301 159.569 263.371 160.517 264.648 161.336L265.728 159.652ZM261.244 157.872V163.668H263.244V157.872H261.244ZM262.244 164.668H265.418V162.668H262.244V164.668ZM264.418 163.668V171.212H266.418V163.668H264.418ZM265.418 170.212H249.64V172.212H265.418V170.212ZM250.64 171.212V163.668H248.64V171.212H250.64ZM264.912 154.456C265.961 154.456 266.935 154.183 267.621 153.448L266.159 152.084C265.986 152.269 265.641 152.456 264.912 152.456V154.456ZM267.62 153.45C268.323 152.699 268.58 151.653 268.58 150.512H266.58C266.58 151.395 266.377 151.851 266.161 152.082L267.62 153.45ZM268.58 150.512V145.912H266.58V150.512H268.58ZM268.58 145.912C268.58 144.778 268.326 143.726 267.597 142.997L266.183 144.411C266.374 144.602 266.58 145.022 266.58 145.912H268.58ZM267.643 143.045C266.961 142.267 265.98 141.968 264.912 141.968V143.968C265.623 143.968 265.96 144.16 266.138 144.363L267.643 143.045ZM264.912 141.968C263.84 141.968 262.863 142.269 262.159 143.02L263.618 144.388C263.833 144.158 264.206 143.968 264.912 143.968V141.968ZM262.157 143.022C261.476 143.752 261.244 144.793 261.244 145.912H263.244C263.244 145.007 263.442 144.576 263.619 144.386L262.157 143.022ZM261.244 145.912V150.512H263.244V145.912H261.244ZM261.244 150.512C261.244 151.638 261.479 152.674 262.136 153.425L263.641 152.107C263.439 151.877 263.244 151.41 263.244 150.512H261.244ZM262.181 153.473C262.889 154.181 263.857 154.456 264.912 154.456V152.456C264.188 152.456 263.807 152.271 263.595 152.059L262.181 153.473ZM306.919 153.456H307.919V152.456H306.919V153.456ZM306.919 161V162H307.919V161H306.919ZM294.775 161H293.775V162H294.775V161ZM294.775 157.872H295.775V154.652L293.951 157.305L294.775 157.872ZM291.923 160.494L291.393 159.646L291.384 159.652L291.923 160.494ZM282.079 159.804L282.761 159.072L282.761 159.072L282.079 159.804ZM294.867 145.682L294.883 146.682L295.958 146.665L295.864 145.594L294.867 145.682ZM293.671 143.566L293.179 144.437L293.194 144.445L293.209 144.453L293.671 143.566ZM285.621 143.428L285.795 144.413L285.803 144.411L285.81 144.41L285.621 143.428ZM281.297 144.578H280.297V146.017L281.646 145.515L281.297 144.578ZM281.297 136.114L281.059 135.143L280.297 135.33V136.114H281.297ZM286.587 135.148L286.459 134.156L286.587 135.148ZM304.895 153.456H303.895V154.456H304.895V153.456ZM294.775 150.236H295.775V149.236H294.775V150.236ZM291.555 150.788L291.123 149.886L291.115 149.89L291.108 149.894L291.555 150.788ZM290.911 153.916L290.171 154.589L290.204 154.624L290.239 154.656L290.911 153.916ZM305.919 153.456V161H307.919V153.456H305.919ZM306.919 160H294.775V162H306.919V160ZM295.775 161V157.872H293.775V161H295.775ZM293.951 157.305C293.369 158.152 292.528 158.937 291.393 159.646L292.453 161.342C293.772 160.518 294.832 159.554 295.599 158.439L293.951 157.305ZM291.384 159.652C290.382 160.294 289.108 160.644 287.507 160.644V162.644C289.403 162.644 291.072 162.227 292.463 161.336L291.384 159.652ZM287.507 160.644C285.388 160.644 283.847 160.083 282.761 159.072L281.398 160.536C282.949 161.979 285.027 162.644 287.507 162.644V160.644ZM282.761 159.072C281.693 158.078 281.101 156.639 281.101 154.606H279.101C279.101 157.05 279.829 159.076 281.398 160.536L282.761 159.072ZM281.101 154.606C281.101 152.055 282.152 150.188 284.31 148.884C286.547 147.532 290.027 146.758 294.883 146.682L294.852 144.682C289.863 144.76 285.961 145.549 283.276 147.172C280.512 148.842 279.101 151.361 279.101 154.606H281.101ZM295.864 145.594C295.752 144.332 295.235 143.254 294.134 142.679L293.209 144.453C293.518 144.614 293.799 144.947 293.871 145.77L295.864 145.594ZM294.163 142.695C293.217 142.16 291.794 141.968 290.083 141.968V143.968C291.747 143.968 292.715 144.174 293.179 144.437L294.163 142.695ZM290.083 141.968C288.63 141.968 287.079 142.129 285.433 142.446L285.81 144.41C287.353 144.113 288.777 143.968 290.083 143.968V141.968ZM285.448 142.443C283.831 142.728 282.331 143.126 280.949 143.641L281.646 145.515C282.901 145.048 284.283 144.68 285.795 144.413L285.448 142.443ZM282.297 144.578V136.114H280.297V144.578H282.297ZM281.536 137.085C283.12 136.697 284.846 136.381 286.715 136.14L286.459 134.156C284.526 134.406 282.726 134.734 281.059 135.143L281.536 137.085ZM286.715 136.14C288.577 135.9 290.389 135.78 292.153 135.78V133.78C290.299 133.78 288.401 133.906 286.459 134.156L286.715 136.14ZM292.153 135.78C296.652 135.78 299.619 136.605 301.307 138.028L302.596 136.5C300.358 134.611 296.794 133.78 292.153 133.78V135.78ZM301.307 138.028C302.972 139.434 303.895 141.666 303.895 144.946H305.895C305.895 141.295 304.856 138.406 302.596 136.5L301.307 138.028ZM303.895 144.946V153.456H305.895V144.946H303.895ZM304.895 154.456H306.919V152.456H304.895V154.456ZM294.775 149.236C293.328 149.236 292.083 149.426 291.123 149.886L291.988 151.69C292.561 151.414 293.463 151.236 294.775 151.236V149.236ZM291.108 149.894C290.596 150.15 290.166 150.516 289.87 151.01C289.576 151.5 289.451 152.054 289.451 152.628H291.451C291.451 152.343 291.511 152.161 291.585 152.038C291.657 151.918 291.779 151.794 292.003 151.682L291.108 149.894ZM289.451 152.628C289.451 153.36 289.673 154.041 290.171 154.589L291.651 153.243C291.536 153.117 291.451 152.939 291.451 152.628H289.451ZM290.239 154.656C290.807 155.173 291.532 155.376 292.291 155.376V153.376C291.886 153.376 291.691 153.273 291.584 153.176L290.239 154.656ZM292.291 155.376C293.432 155.376 294.363 154.863 294.975 153.901L293.288 152.827C293.041 153.214 292.746 153.376 292.291 153.376V155.376ZM294.975 153.901C295.547 153.002 295.775 151.835 295.775 150.512H293.775C293.775 151.642 293.574 152.377 293.288 152.827L294.975 153.901ZM295.775 150.512V150.236H293.775V150.512H295.775ZM311.898 158.24L311.214 158.97L311.219 158.974L311.898 158.24ZM311.898 138.23L312.577 138.964L312.582 138.96L311.898 138.23ZM328.182 135.654L327.893 136.611L327.893 136.611L328.182 135.654ZM332.69 137.632H333.69V137.105L333.256 136.807L332.69 137.632ZM332.69 146.74V147.74H333.69V146.74H332.69ZM324.778 146.74H323.778V147.74H324.778V146.74ZM324.134 143.704L323.382 144.363L323.392 144.375L323.403 144.386L324.134 143.704ZM332.414 152.628H333.414V151.451L332.253 151.641L332.414 152.628ZM332.414 159.85L332.818 160.765L333.414 160.502V159.85H332.414ZM327.998 161.092L327.808 160.11L327.805 160.111L327.998 161.092ZM322.156 160.644C317.942 160.644 314.794 159.556 312.577 157.506L311.219 158.974C313.909 161.462 317.6 162.644 322.156 162.644V160.644ZM312.582 157.51C310.387 155.452 309.218 152.409 309.218 148.212H307.218C307.218 152.785 308.503 156.428 311.214 158.97L312.582 157.51ZM309.218 148.212C309.218 144.014 310.387 140.99 312.577 138.964L311.219 137.496C308.503 140.009 307.218 143.639 307.218 148.212H309.218ZM312.582 138.96C314.8 136.88 317.932 135.78 322.11 135.78V133.78C317.579 133.78 313.903 134.98 311.214 137.5L312.582 138.96ZM322.11 135.78C324.133 135.78 326.06 136.058 327.893 136.611L328.471 134.697C326.441 134.084 324.319 133.78 322.11 133.78V135.78ZM327.893 136.611C329.775 137.179 331.17 137.802 332.125 138.457L333.256 136.807C332.064 135.99 330.454 135.295 328.471 134.697L327.893 136.611ZM331.69 137.632V146.74H333.69V137.632H331.69ZM332.69 145.74H324.778V147.74H332.69V145.74ZM325.778 146.74V145.912H323.778V146.74H325.778ZM325.778 145.912C325.778 144.793 325.547 143.752 324.865 143.022L323.403 144.386C323.581 144.576 323.778 145.007 323.778 145.912H325.778ZM324.887 143.045C324.2 142.26 323.196 141.968 322.11 141.968V143.968C322.864 143.968 323.21 144.167 323.382 144.363L324.887 143.045ZM322.11 141.968C321.04 141.968 320.061 142.268 319.368 143.032C318.692 143.779 318.442 144.8 318.442 145.912H320.442C320.442 145.062 320.637 144.611 320.85 144.376C321.047 144.159 321.402 143.968 322.11 143.968V141.968ZM318.442 145.912V149.868H320.442V145.912H318.442ZM318.442 149.868C318.442 151.255 318.844 152.467 319.807 153.311C320.744 154.133 322.047 154.456 323.536 154.456V152.456C322.296 152.456 321.552 152.181 321.125 151.807C320.723 151.455 320.442 150.873 320.442 149.868H318.442ZM323.536 154.456C326.15 154.456 329.166 154.173 332.576 153.615L332.253 151.641C328.916 152.187 326.013 152.456 323.536 152.456V154.456ZM331.414 152.628V159.85H333.414V152.628H331.414ZM332.011 158.935C331.068 159.351 329.679 159.748 327.808 160.11L328.188 162.074C330.12 161.7 331.676 161.269 332.818 160.765L332.011 158.935ZM327.805 160.111C326.002 160.466 324.119 160.644 322.156 160.644V162.644C324.241 162.644 326.253 162.454 328.191 162.073L327.805 160.111ZM337.728 158.24L337.044 158.97L337.049 158.974L337.728 158.24ZM337.728 138.23L338.407 138.964L338.412 138.96L337.728 138.23ZM357.278 138.184L356.512 138.826L356.516 138.832L356.521 138.837L357.278 138.184ZM360.176 149.868V150.868H361.176V149.868H360.176ZM345.272 149.868V148.868H344.272V149.868H345.272ZM346.284 152.674L345.651 153.448L345.662 153.457L345.673 153.465L346.284 152.674ZM354.978 153.042L354.817 152.055L354.817 152.055L354.978 153.042ZM359.394 151.984H360.394V150.586L359.071 151.038L359.394 151.984ZM359.394 159.344L359.871 160.223L360.394 159.939V159.344H359.394ZM354.656 160.954L354.875 161.93L354.885 161.927L354.656 160.954ZM350.608 144.808V145.808H351.608V144.808H350.608ZM349.918 142.002L349.187 142.684L349.199 142.697L349.211 142.709L349.918 142.002ZM345.916 142.048L345.187 141.364L345.185 141.366L345.916 142.048ZM345.272 144.808H344.272V145.808H345.272V144.808ZM347.94 160.644C343.759 160.644 340.625 159.558 338.407 157.506L337.049 158.974C339.738 161.461 343.412 162.644 347.94 162.644V160.644ZM338.412 157.51C336.217 155.452 335.048 152.409 335.048 148.212H333.048C333.048 152.785 334.333 156.428 337.044 158.97L338.412 157.51ZM335.048 148.212C335.048 144.014 336.217 140.99 338.407 138.964L337.049 137.496C334.333 140.009 333.048 143.639 333.048 148.212H335.048ZM338.412 138.96C340.631 136.88 343.762 135.78 347.94 135.78V133.78C343.409 133.78 339.733 134.98 337.044 137.5L338.412 138.96ZM347.94 135.78C352.108 135.78 354.875 136.873 356.512 138.826L358.045 137.542C355.879 134.957 352.42 133.78 347.94 133.78V135.78ZM356.521 138.837C358.276 140.871 359.176 143.42 359.176 146.556H361.176C361.176 143.007 360.145 139.975 358.035 137.531L356.521 138.837ZM359.176 146.556V149.868H361.176V146.556H359.176ZM360.176 148.868H345.272V150.868H360.176V148.868ZM344.272 149.868V150.144H346.272V149.868H344.272ZM344.272 150.144C344.272 151.481 344.678 152.652 345.651 153.448L346.918 151.9C346.541 151.592 346.272 151.076 346.272 150.144H344.272ZM345.673 153.465C346.618 154.195 348.019 154.456 349.642 154.456V152.456C348.138 152.456 347.3 152.195 346.896 151.883L345.673 153.465ZM349.642 154.456C351.562 154.456 353.395 154.314 355.14 154.029L354.817 152.055C353.188 152.322 351.464 152.456 349.642 152.456V154.456ZM355.14 154.029C356.867 153.746 358.395 153.382 359.717 152.93L359.071 151.038C357.879 151.445 356.463 151.786 354.817 152.055L355.14 154.029ZM358.394 151.984V159.344H360.394V151.984H358.394ZM358.917 158.465C357.959 158.985 356.481 159.497 354.427 159.981L354.885 161.927C357.003 161.429 358.683 160.868 359.871 160.223L358.917 158.465ZM354.438 159.978C352.465 160.42 350.3 160.644 347.94 160.644V162.644C350.426 162.644 352.739 162.408 354.875 161.93L354.438 159.978ZM351.608 144.808V144.256H349.608V144.808H351.608ZM351.608 144.256C351.608 143.102 351.359 142.029 350.625 141.295L349.211 142.709C349.397 142.895 349.608 143.325 349.608 144.256H351.608ZM350.649 141.32C349.964 140.585 348.99 140.312 347.94 140.312V142.312C348.67 142.312 349.014 142.499 349.187 142.684L350.649 141.32ZM347.94 140.312C346.868 140.312 345.891 140.613 345.187 141.364L346.646 142.732C346.861 142.502 347.234 142.312 347.94 142.312V140.312ZM345.185 141.366C344.504 142.096 344.272 143.137 344.272 144.256H346.272C346.272 143.351 346.47 142.92 346.647 142.73L345.185 141.366ZM344.272 144.256V144.808H346.272V144.256H344.272ZM345.272 145.808H350.608V143.808H345.272V145.808ZM381.316 160.908L381.12 161.889L381.133 161.891L381.316 160.908ZM375.29 159.16H374.29V159.803L374.875 160.07L375.29 159.16ZM375.29 150.052V149.052H374.29V150.052H375.29ZM385.41 150.052H386.41V149.052H385.41V150.052ZM386.054 152.122L385.347 152.829L385.347 152.829L386.054 152.122ZM390.424 152.352L390.993 153.174L390.999 153.17L391.005 153.166L390.424 152.352ZM390.47 149.776L389.792 150.511L389.807 150.525L389.824 150.539L390.47 149.776ZM388.4 148.672L388.751 147.736L388.74 147.732L388.729 147.728L388.4 148.672ZM384.444 147.292L384.09 148.227L384.102 148.232L384.114 148.236L384.444 147.292ZM377.084 142.738L376.319 143.382L376.325 143.39L377.084 142.738ZM378.418 127.42L379.039 128.204L379.04 128.203L378.418 127.42ZM397.83 125.396L397.599 126.369L397.607 126.371L397.614 126.372L397.83 125.396ZM403.534 127.512H404.534V126.954L404.059 126.661L403.534 127.512ZM403.534 135.746V136.746H404.534V135.746H403.534ZM394.334 135.746H393.334V136.746H394.334V135.746ZM389.504 133.814L390.008 134.678L390.018 134.672L390.028 134.666L389.504 133.814ZM389.596 136.252L389.015 137.066L389.028 137.075L389.041 137.084L389.596 136.252ZM391.804 137.218L392.13 136.273L392.12 136.269L391.804 137.218ZM395.806 138.598L395.48 139.543L395.484 139.545L395.806 138.598ZM402.89 142.922L402.119 143.56L402.125 143.567L402.131 143.574L402.89 142.922ZM401.188 158.654L400.585 157.856L400.58 157.86L401.188 158.654ZM389.688 160.644C386.799 160.644 384.07 160.403 381.499 159.925L381.133 161.891C383.836 162.394 386.688 162.644 389.688 162.644V160.644ZM381.512 159.927C378.935 159.412 377.013 158.848 375.705 158.25L374.875 160.07C376.388 160.76 378.483 161.361 381.12 161.889L381.512 159.927ZM376.29 159.16V150.052H374.29V159.16H376.29ZM375.29 151.052H385.41V149.052H375.29V151.052ZM384.41 150.052C384.41 151.122 384.647 152.13 385.347 152.829L386.761 151.415C386.602 151.256 386.41 150.883 386.41 150.052H384.41ZM385.347 152.829C386.071 153.554 387.207 153.766 388.4 153.766V151.766C387.324 151.766 386.895 151.549 386.761 151.415L385.347 152.829ZM388.4 153.766C389.39 153.766 390.33 153.633 390.993 153.174L389.855 151.53C389.72 151.623 389.311 151.766 388.4 151.766V153.766ZM391.005 153.166C391.728 152.65 392.068 151.884 392.068 151.018H390.068C390.068 151.317 389.979 151.441 389.843 151.538L391.005 153.166ZM392.068 151.018C392.068 150.212 391.723 149.526 391.116 149.013L389.824 150.539C390.014 150.701 390.068 150.842 390.068 151.018H392.068ZM391.148 149.041C390.602 148.537 389.762 148.115 388.751 147.736L388.049 149.608C389.001 149.965 389.54 150.279 389.792 150.511L391.148 149.041ZM388.729 147.728L384.773 146.348L384.114 148.236L388.07 149.616L388.729 147.728ZM384.798 146.357C381.468 145.097 379.19 143.654 377.842 142.086L376.325 143.39C377.983 145.318 380.611 146.911 384.09 148.227L384.798 146.357ZM377.849 142.094C376.569 140.575 375.876 138.465 375.876 135.654H373.876C373.876 138.792 374.654 141.405 376.319 143.382L377.849 142.094ZM375.876 135.654C375.876 132.272 376.966 129.846 379.039 128.204L377.797 126.636C375.147 128.735 373.876 131.798 373.876 135.654H375.876ZM379.04 128.203C381.16 126.518 384.844 125.568 390.332 125.568V123.568C384.718 123.568 380.46 124.52 377.796 126.637L379.04 128.203ZM390.332 125.568C392.931 125.568 395.352 125.837 397.599 126.369L398.06 124.423C395.646 123.851 393.069 123.568 390.332 123.568V125.568ZM397.614 126.372C399.909 126.879 401.694 127.552 403.009 128.363L404.059 126.661C402.491 125.693 400.473 124.956 398.045 124.42L397.614 126.372ZM402.534 127.512V135.746H404.534V127.512H402.534ZM403.534 134.746H394.334V136.746H403.534V134.746ZM395.334 135.746C395.334 134.761 395.018 133.863 394.249 133.243C393.52 132.655 392.541 132.446 391.482 132.446V134.446C392.324 134.446 392.771 134.62 392.993 134.799C393.174 134.946 393.334 135.197 393.334 135.746H395.334ZM391.482 132.446C390.525 132.446 389.627 132.564 388.98 132.962L390.028 134.666C390.178 134.573 390.599 134.446 391.482 134.446V132.446ZM389 132.95C388.216 133.408 387.952 134.219 387.952 135.01H389.952C389.952 134.818 389.983 134.725 389.998 134.693C390.004 134.679 390.008 134.676 390.006 134.678C390.003 134.681 390.002 134.681 390.008 134.678L389 132.95ZM387.952 135.01C387.952 135.859 388.326 136.574 389.015 137.066L390.177 135.438C390.007 135.317 389.952 135.204 389.952 135.01H387.952ZM389.041 137.084C389.615 137.467 390.454 137.822 391.488 138.167L392.12 136.269C391.13 135.939 390.497 135.651 390.151 135.42L389.041 137.084ZM391.478 138.163L395.48 139.543L396.132 137.653L392.13 136.273L391.478 138.163ZM395.484 139.545C398.639 140.616 400.81 141.977 402.119 143.56L403.66 142.284C402.026 140.31 399.474 138.788 396.127 137.651L395.484 139.545ZM402.131 143.574C403.444 145.1 404.144 147.15 404.144 149.822H406.144C406.144 146.79 405.341 144.24 403.648 142.27L402.131 143.574ZM404.144 149.822C404.144 153.466 402.926 156.087 400.585 157.856L401.791 159.452C404.725 157.234 406.144 153.967 406.144 149.822H404.144ZM400.58 157.86C398.22 159.665 394.64 160.644 389.688 160.644V162.644C394.855 162.644 398.942 161.63 401.795 159.448L400.58 157.86ZM408.54 132.894H407.54V133.894H408.54V132.894ZM408.54 125.212V124.212H407.54V125.212H408.54ZM417.924 125.212H418.924V124.212H417.924V125.212ZM417.924 132.894V133.894H418.924V132.894H417.924ZM406.332 161H405.332V162H406.332V161ZM406.332 153.456V152.456H405.332V153.456H406.332ZM408.356 153.456V154.456H409.356V153.456H408.356ZM408.356 142.968H409.356V141.968H408.356V142.968ZM406.332 142.968H405.332V143.968H406.332V142.968ZM406.332 135.424V134.424H405.332V135.424H406.332ZM418.936 135.424H419.936V134.424H418.936V135.424ZM418.936 153.456H417.936V154.456H418.936V153.456ZM420.96 153.456H421.96V152.456H420.96V153.456ZM420.96 161V162H421.96V161H420.96ZM409.54 132.894V125.212H407.54V132.894H409.54ZM408.54 126.212H417.924V124.212H408.54V126.212ZM416.924 125.212V132.894H418.924V125.212H416.924ZM417.924 131.894H408.54V133.894H417.924V131.894ZM407.332 161V153.456H405.332V161H407.332ZM406.332 154.456H408.356V152.456H406.332V154.456ZM409.356 153.456V142.968H407.356V153.456H409.356ZM408.356 141.968H406.332V143.968H408.356V141.968ZM407.332 142.968V135.424H405.332V142.968H407.332ZM406.332 136.424H418.936V134.424H406.332V136.424ZM417.936 135.424V153.456H419.936V135.424H417.936ZM418.936 154.456H420.96V152.456H418.936V154.456ZM419.96 153.456V161H421.96V153.456H419.96ZM420.96 160H406.332V162H420.96V160ZM426.236 159.298L425.536 160.012L425.543 160.018L425.55 160.025L426.236 159.298ZM423.798 142.968H424.798V141.968H423.798V142.968ZM421.774 142.968H420.774V143.968H421.774V142.968ZM421.774 135.424V134.424H420.774V135.424H421.774ZM424.396 134.55L425.103 135.257L425.112 135.248L425.121 135.239L424.396 134.55ZM425.27 129.996V128.996H424.27V129.996H425.27ZM435.022 129.996H436.022V128.996H435.022V129.996ZM435.022 135.424H434.022V136.424H435.022V135.424ZM441.232 135.424H442.232V134.424H441.232V135.424ZM441.232 142.968V143.968H442.232V142.968H441.232ZM435.022 142.968V141.968H434.022V142.968H435.022ZM435.666 152.766L434.914 153.425L434.936 153.45L434.959 153.473L435.666 152.766ZM441.508 153.042H442.508V151.822L441.312 152.061L441.508 153.042ZM441.508 160.264L441.874 161.195L442.508 160.946V160.264H441.508ZM438.012 161.184L437.828 160.201L437.816 160.203L437.804 160.206L438.012 161.184ZM433.596 160.644C430.492 160.644 428.327 159.897 426.923 158.571L425.55 160.025C427.458 161.827 430.199 162.644 433.596 162.644V160.644ZM426.937 158.584C425.595 157.268 424.798 154.932 424.798 151.294H422.798C422.798 155.139 423.627 158.139 425.536 160.012L426.937 158.584ZM424.798 151.294V142.968H422.798V151.294H424.798ZM423.798 141.968H421.774V143.968H423.798V141.968ZM422.774 142.968V135.424H420.774V142.968H422.774ZM421.774 136.424C423.094 136.424 424.267 136.093 425.103 135.257L423.689 133.843C423.36 134.172 422.785 134.424 421.774 134.424V136.424ZM425.121 135.239C425.919 134.399 426.27 133.302 426.27 132.066H424.27C424.27 132.915 424.038 133.475 423.671 133.861L425.121 135.239ZM426.27 132.066V129.996H424.27V132.066H426.27ZM425.27 130.996H435.022V128.996H425.27V130.996ZM434.022 129.996V135.424H436.022V129.996H434.022ZM435.022 136.424H441.232V134.424H435.022V136.424ZM440.232 135.424V142.968H442.232V135.424H440.232ZM441.232 141.968H435.022V143.968H441.232V141.968ZM434.022 142.968V150.512H436.022V142.968H434.022ZM434.022 150.512C434.022 151.638 434.257 152.674 434.914 153.425L436.419 152.107C436.217 151.877 436.022 151.41 436.022 150.512H434.022ZM434.959 153.473C435.667 154.181 436.635 154.456 437.69 154.456V152.456C436.966 152.456 436.585 152.271 436.373 152.059L434.959 153.473ZM437.69 154.456C438.933 154.456 440.273 154.309 441.704 154.023L441.312 152.061C439.984 152.327 438.778 152.456 437.69 152.456V154.456ZM440.508 153.042V160.264H442.508V153.042H440.508ZM441.143 159.333C440.367 159.638 439.271 159.931 437.828 160.201L438.197 162.167C439.697 161.885 440.932 161.565 441.874 161.195L441.143 159.333ZM437.804 160.206C436.433 160.498 435.03 160.644 433.596 160.644V162.644C435.167 162.644 436.709 162.484 438.22 162.162L437.804 160.206ZM446.484 158.24L445.8 158.97L445.805 158.974L446.484 158.24ZM446.484 138.23L447.163 138.964L447.168 138.96L446.484 138.23ZM466.034 138.184L465.268 138.826L465.272 138.832L465.277 138.837L466.034 138.184ZM468.932 149.868V150.868H469.932V149.868H468.932ZM454.028 149.868V148.868H453.028V149.868H454.028ZM455.04 152.674L454.407 153.448L454.418 153.457L454.429 153.465L455.04 152.674ZM463.734 153.042L463.573 152.055L463.573 152.055L463.734 153.042ZM468.15 151.984H469.15V150.586L467.827 151.038L468.15 151.984ZM468.15 159.344L468.627 160.223L469.15 159.939V159.344H468.15ZM463.412 160.954L463.631 161.93L463.641 161.927L463.412 160.954ZM459.364 144.808V145.808H460.364V144.808H459.364ZM458.674 142.002L457.943 142.684L457.955 142.697L457.967 142.709L458.674 142.002ZM454.672 142.048L453.943 141.364L453.941 141.366L454.672 142.048ZM454.028 144.808H453.028V145.808H454.028V144.808ZM456.696 160.644C452.515 160.644 449.381 159.558 447.163 157.506L445.805 158.974C448.494 161.461 452.168 162.644 456.696 162.644V160.644ZM447.168 157.51C444.973 155.452 443.804 152.409 443.804 148.212H441.804C441.804 152.785 443.089 156.428 445.8 158.97L447.168 157.51ZM443.804 148.212C443.804 144.014 444.973 140.99 447.163 138.964L445.805 137.496C443.088 140.009 441.804 143.639 441.804 148.212H443.804ZM447.168 138.96C449.386 136.88 452.518 135.78 456.696 135.78V133.78C452.165 133.78 448.489 134.98 445.8 137.5L447.168 138.96ZM456.696 135.78C460.864 135.78 463.631 136.873 465.268 138.826L466.801 137.542C464.635 134.957 461.176 133.78 456.696 133.78V135.78ZM465.277 138.837C467.032 140.871 467.932 143.42 467.932 146.556H469.932C469.932 143.007 468.9 139.975 466.791 137.531L465.277 138.837ZM467.932 146.556V149.868H469.932V146.556H467.932ZM468.932 148.868H454.028V150.868H468.932V148.868ZM453.028 149.868V150.144H455.028V149.868H453.028ZM453.028 150.144C453.028 151.481 453.434 152.652 454.407 153.448L455.673 151.9C455.297 151.592 455.028 151.076 455.028 150.144H453.028ZM454.429 153.465C455.374 154.195 456.774 154.456 458.398 154.456V152.456C456.894 152.456 456.056 152.195 455.652 151.883L454.429 153.465ZM458.398 154.456C460.318 154.456 462.151 154.314 463.896 154.029L463.573 152.055C461.944 152.322 460.22 152.456 458.398 152.456V154.456ZM463.896 154.029C465.623 153.746 467.151 153.382 468.473 152.93L467.827 151.038C466.635 151.445 465.219 151.786 463.573 152.055L463.896 154.029ZM467.15 151.984V159.344H469.15V151.984H467.15ZM467.673 158.465C466.715 158.985 465.236 159.497 463.183 159.981L463.641 161.927C465.758 161.429 467.438 160.868 468.627 160.223L467.673 158.465ZM463.194 159.978C461.221 160.42 459.056 160.644 456.696 160.644V162.644C459.182 162.644 461.494 162.408 463.631 161.93L463.194 159.978ZM460.364 144.808V144.256H458.364V144.808H460.364ZM460.364 144.256C460.364 143.102 460.115 142.029 459.381 141.295L457.967 142.709C458.153 142.895 458.364 143.325 458.364 144.256H460.364ZM459.405 141.32C458.719 140.585 457.746 140.312 456.696 140.312V142.312C457.425 142.312 457.77 142.499 457.943 142.684L459.405 141.32ZM456.696 140.312C455.624 140.312 454.647 140.613 453.943 141.364L455.402 142.732C455.617 142.502 455.99 142.312 456.696 142.312V140.312ZM453.941 141.366C453.26 142.096 453.028 143.137 453.028 144.256H455.028C455.028 143.351 455.226 142.92 455.403 142.73L453.941 141.366ZM453.028 144.256V144.808H455.028V144.256H453.028ZM454.028 145.808H459.364V143.808H454.028V145.808Z" fill="#92E3A9" mask="url(#path-11-outside-2_593_137)"/>
</svg>
